<svg width="512" height="512" viewBox="0 0 512 512" fill="none" xmlns="http://www.w3.org/2000/svg">
<path d="M256 512C397.385 512 512 397.385 512 256C512 114.615 397.385 0 256 0C114.615 0 0 114.615 0 256C0 397.385 114.615 512 256 512Z" fill="url(#paint0_linear_625_66)"/>
<path d="M441.831 149.49C441.831 149.55 441.831 149.61 441.741 149.68C441.73 149.598 441.71 149.517 441.681 149.44C436.867 148.038 432.539 145.323 429.181 141.6C428.605 140.966 428.067 140.298 427.571 139.6C426.813 138.594 426.128 137.534 425.521 136.43C421.607 131.148 415.894 127.484 409.461 126.13C408.831 125.99 408.181 125.88 407.531 125.79C406.324 125.629 405.108 125.549 403.891 125.55C400.444 125.545 397.029 126.204 393.831 127.49C393.301 127.7 392.831 127.92 392.291 128.17C387.858 130.296 384.091 133.595 381.401 137.71C381.161 138.33 380.921 138.94 380.661 139.54C380.221 140.54 379.751 141.54 379.221 142.54C379.693 142.091 380.213 141.696 380.771 141.36C382.009 140.609 383.409 140.164 384.854 140.063C386.299 139.963 387.747 140.209 389.078 140.781C390.409 141.353 391.583 142.236 392.504 143.354C393.425 144.472 394.065 145.794 394.371 147.21C395.775 150.488 397.814 153.455 400.371 155.94C401.449 157.006 402.62 157.973 403.871 158.83C408.077 161.761 413.038 163.421 418.161 163.61C418.521 163.61 418.871 163.61 419.231 163.61C421.841 163.611 424.438 163.234 426.941 162.49C427.741 162.25 428.521 161.98 429.291 161.67C434.602 159.519 439.097 155.742 442.131 150.88C442.381 150.49 442.621 150.08 442.841 149.67L441.831 149.49Z" fill="white"/>
<path d="M384.63 238.39C384.647 228.167 381.176 218.243 374.79 210.26C373.198 208.25 371.435 206.383 369.52 204.68C367.257 203.285 365.122 201.692 363.14 199.92C361.253 198.242 359.513 196.405 357.94 194.43C352.251 187.351 348.842 178.715 348.16 169.66C340.793 172.035 332.943 172.496 325.35 171C325.65 171.25 325.94 171.51 326.24 171.79C332.168 177.182 336.549 184.058 338.93 191.71C339.09 192.23 339.24 192.71 339.38 193.27C341.885 202.406 341.458 212.099 338.16 220.98C348.432 223.001 357.683 228.526 364.334 236.611C370.984 244.697 374.62 254.841 374.62 265.31C374.62 265.82 374.62 266.31 374.62 266.83C381.127 258.783 384.663 248.739 384.63 238.39V238.39Z" fill="white"/>
<path d="M283.239 256.18C283.199 255.78 283.149 255.38 283.089 254.98C283.089 254.67 283.009 254.37 282.959 254.06C282.769 252.8 282.519 251.56 282.219 250.33C281.632 247.913 280.846 245.548 279.869 243.26C279.489 242.37 279.079 241.5 278.639 240.64C273.792 231.078 265.714 223.542 255.839 219.37L255.229 219.12C252.978 218.165 250.865 216.91 248.949 215.39C247.252 214.016 245.724 212.445 244.399 210.71C241.713 207.221 239.92 203.129 239.177 198.789C238.435 194.449 238.765 189.993 240.139 185.81C240.387 185.035 240.678 184.274 241.009 183.53C239.079 183.277 237.135 183.15 235.189 183.15C227.378 182.884 219.66 184.911 212.988 188.983C206.316 193.054 200.984 198.991 197.649 206.06C196.756 208.447 195.789 210.78 194.749 213.06C194.046 215.275 193.521 217.542 193.179 219.84C192.825 222.113 192.648 224.41 192.649 226.71C192.649 227.71 192.649 228.71 192.759 229.71C193.086 234.778 194.277 239.753 196.279 244.42C196.749 245.52 197.279 246.6 197.819 247.65C198.704 249.383 199.706 251.054 200.819 252.65C201.935 254.248 203.158 255.768 204.479 257.2C205.703 258.54 207.008 259.803 208.389 260.98C210.377 263.137 212.152 265.482 213.689 267.98C219.383 277.387 221.469 288.541 219.559 299.37C219.419 300.18 219.249 300.97 219.069 301.76C217.697 307.813 215.085 313.516 211.399 318.51V318.51C206.573 325.13 202.451 332.235 199.099 339.71C197.017 344.339 195.24 349.099 193.779 353.96C186.042 379.809 187.351 407.525 197.489 432.53C196.616 426.68 196.178 420.774 196.179 414.86C196.16 396.282 200.534 377.963 208.946 361.399C217.358 344.835 229.568 330.495 244.579 319.55L244.729 319.44C253.959 312.681 262.163 304.625 269.089 295.52C270.579 293.52 272.009 291.52 273.379 289.52C275.459 286.4 277.392 283.173 279.179 279.84C279.599 279.07 279.999 278.3 280.389 277.53C281.023 275.923 281.561 274.28 281.999 272.61C283 268.832 283.504 264.939 283.499 261.03C283.499 259.41 283.412 257.791 283.239 256.18Z" fill="white"/>
<path d="M408.019 118.52C407.032 116.793 405.859 115.18 404.519 113.71C404.299 113.45 404.059 113.2 403.819 112.96L403.429 112.57C403.119 112.27 402.809 111.97 402.489 111.69C401.899 111.16 401.279 110.69 400.639 110.18C399.072 110.644 397.55 111.247 396.089 111.98C395.088 112.493 394.12 113.067 393.189 113.7C390.169 115.737 387.593 118.366 385.618 121.427C383.643 124.488 382.31 127.918 381.699 131.51C382.371 130.518 383.109 129.572 383.909 128.68C386.994 125.192 390.933 122.566 395.339 121.06L396.339 120.74C400.145 119.611 404.153 119.331 408.079 119.92L408.799 120.03C408.569 119.52 408.299 119.02 408.019 118.52Z" fill="white"/>
<path d="M395.71 160.49C394.205 158.959 392.889 157.254 391.79 155.41C391.396 154.743 391.036 154.077 390.71 153.41C390.198 152.364 389.757 151.285 389.39 150.18C388.563 148.914 387.433 147.873 386.102 147.154C384.771 146.435 383.282 146.059 381.77 146.06C380.452 146.064 379.151 146.352 377.955 146.904C376.76 147.456 375.697 148.26 374.84 149.26C374.74 149.41 374.64 149.57 374.53 149.72L374.4 149.9L373.73 150.9C368.658 157.957 361.673 163.415 353.6 166.63C354.009 171.194 355.122 175.667 356.9 179.89C359.509 186.127 363.487 191.698 368.54 196.19C370.502 197.952 372.621 199.532 374.87 200.91C376.556 202.413 378.127 204.041 379.57 205.78C380.03 205.21 380.48 204.63 380.93 204.05C382.09 202.557 383.21 201.03 384.29 199.47C388.291 193.753 391.772 187.689 394.69 181.35C395.11 180.45 395.52 179.53 395.92 178.61C397.4 175.157 398.733 171.627 399.92 168.02C400.28 166.9 400.62 165.77 400.92 164.65C399.014 163.49 397.263 162.092 395.71 160.49V160.49Z" fill="white"/>
<path d="M334.119 226.02C333.15 225.901 332.176 225.838 331.199 225.83C331.669 224.76 332.099 223.67 332.479 222.56C335.48 213.81 335.742 204.353 333.229 195.45C333.089 195 332.959 194.55 332.819 194.11C330.155 185.767 325.125 178.377 318.339 172.84C311.347 171.572 304.255 170.936 297.149 170.94C294.859 170.94 292.589 171 290.339 171.14C289.029 171.21 287.719 171.3 286.409 171.43L285.289 171.53C276.476 172.402 267.79 174.274 259.399 177.11C258.039 177.56 256.699 178.04 255.399 178.54C253.789 179.15 252.199 179.8 250.619 180.47C249.529 180.94 248.439 181.47 247.369 181.93L246.769 182.21C245.126 186.967 244.836 192.087 245.929 197C246.393 199.08 247.112 201.096 248.069 203C251.017 208.938 256.041 213.589 262.189 216.07C264.262 216.917 266.268 217.92 268.189 219.07C274.288 222.767 279.427 227.852 283.189 233.91C283.779 234.85 284.329 235.8 284.829 236.78C286.074 239.128 287.102 241.585 287.899 244.12C288.741 246.772 289.333 249.498 289.669 252.26C289.669 252.49 289.669 252.71 289.739 252.94C289.809 253.17 289.809 253.56 289.829 253.87C290.669 253.82 291.499 253.75 292.329 253.68L293.449 253.57C294.449 253.48 295.449 253.37 296.449 253.24C298.969 252.927 301.463 252.54 303.929 252.08C320.216 248.998 335.665 242.503 349.259 233.02C345.085 229.137 339.781 226.685 334.119 226.02Z" fill="white"/>
<path d="M194.01 253.61L193.771 253.22C193.161 252.22 192.581 251.22 192.061 250.14C189.703 245.512 188.176 240.506 187.551 235.35C187.318 233.496 187.201 231.629 187.201 229.76C187.202 227.484 187.373 225.211 187.711 222.96C177.529 241.467 162.561 256.899 144.373 267.641C126.184 278.382 105.444 284.039 84.3206 284.02C79.2755 284.023 74.2353 283.705 69.2305 283.07C56.9211 281.499 44.9388 277.986 33.7305 272.66C54.476 288.928 80.0875 297.75 106.451 297.71C113.421 297.715 120.377 297.106 127.24 295.89C151.215 291.618 173.279 280.027 190.401 262.71C191.401 261.71 192.401 260.62 193.401 259.55C194.401 258.48 195.161 257.6 196.021 256.55C195.311 255.61 194.64 254.62 194.01 253.61Z" fill="white"/>
<defs>
<linearGradient id="paint0_linear_625_66" x1="43.65" y1="112.99" x2="468.36" y2="399.01" gradientUnits="userSpaceOnUse">
<stop stop-color="#650571"/>
<stop offset="0.520833" stop-color="#7818B0"/>
<stop offset="1" stop-color="#4811A3"/>
</linearGradient>
</defs>
</svg>
