<?xml version="1.0" standalone="no"?>
<!DOCTYPE svg PUBLIC "-//W3C//DTD SVG 20010904//EN"
 "http://www.w3.org/TR/2001/REC-SVG-20010904/DTD/svg10.dtd">
<svg version="1.0" xmlns="http://www.w3.org/2000/svg"
 width="512.000000pt" height="512.000000pt" viewBox="0 0 512.000000 512.000000"
 preserveAspectRatio="xMidYMid meet">

<g transform="translate(0.000000,512.000000) scale(0.100000,-0.100000)"
fill="#000" stroke="none">
<path d="M1796 4525 c-259 -49 -588 -215 -861 -433 -122 -98 -320 -295 -418
-417 -241 -299 -429 -671 -494 -975 -24 -113 -24 -304 -1 -380 34 -112 103
-184 213 -226 69 -26 230 -27 297 -1 l47 18 73 -50 c133 -90 261 -147 403
-177 94 -20 274 -19 365 2 39 9 73 14 75 12 2 -1 -21 -44 -50 -94 l-54 -91
-58 -12 c-97 -21 -194 -74 -251 -135 -54 -60 -79 -118 -89 -207 -5 -49 -3 -58
20 -85 l25 -29 272 -3 c371 -4 440 8 528 96 48 48 122 173 122 207 0 28 -40
75 -64 75 -35 0 -64 -26 -111 -98 -81 -125 -71 -122 -377 -122 l-259 0 15 28
c8 15 25 37 38 49 33 31 125 71 178 79 105 14 98 6 231 234 99 169 128 211
152 221 97 40 254 167 324 263 52 71 57 113 17 145 -47 37 -83 22 -137 -55
-95 -135 -317 -265 -556 -325 -112 -28 -288 -23 -396 11 -75 23 -201 83 -258
122 l-35 24 96 84 c115 103 168 140 197 140 11 0 68 -16 126 -36 274 -93 525
-30 675 169 51 69 56 105 19 142 -32 32 -70 32 -98 -1 -143 -166 -200 -197
-362 -198 -90 0 -110 3 -195 34 -75 27 -110 35 -166 34 -88 0 -125 -20 -267
-146 -205 -182 -311 -225 -453 -183 -90 27 -133 96 -141 230 -20 329 257 893
628 1279 333 347 761 596 1092 638 208 26 315 -26 368 -177 46 -133 53 -194
54 -498 0 -274 1 -289 19 -303 28 -20 59 -18 135 10 250 90 587 116 904 70 97
-14 110 -15 131 -1 42 28 42 103 -1 125 -50 27 -241 47 -453 46 -223 0 -324
-12 -492 -54 -42 -11 -78 -20 -81 -20 -2 0 -7 100 -10 223 -4 168 -10 244 -25
312 -51 231 -135 349 -287 400 -70 24 -240 28 -339 10z"/>
<path d="M1066 3754 c-145 -35 -299 -156 -363 -284 -113 -228 -74 -482 101
-655 116 -115 237 -165 398 -165 159 0 279 50 393 165 109 109 165 242 165
390 -1 364 -342 634 -694 549z m224 -145 c230 -53 371 -295 301 -518 -37 -121
-110 -204 -227 -258 -53 -25 -70 -28 -164 -28 -97 0 -110 2 -172 32 -88 41
-160 113 -201 201 -30 62 -32 74 -32 172 0 97 3 110 32 170 34 71 105 148 168
186 81 47 200 65 295 43z"/>
<path d="M1160 3393 c-71 -29 -110 -95 -110 -188 0 -186 197 -254 278 -95 43
86 20 212 -49 261 -31 22 -92 33 -119 22z"/>
<path d="M3680 3518 c-25 -27 -26 -69 -2 -96 9 -11 63 -37 119 -57 56 -20 164
-67 240 -104 441 -216 745 -540 867 -926 81 -256 85 -580 10 -804 -111 -332
-420 -616 -811 -745 -116 -38 -148 -82 -102 -140 28 -36 68 -34 187 10 357
134 652 377 799 660 93 179 127 338 127 599 1 200 -18 325 -72 485 -167 493
-583 881 -1184 1104 -113 42 -149 45 -178 14z"/>
<path d="M3778 2185 c-86 -21 -182 -68 -205 -101 -11 -16 -100 -159 -198 -319
-97 -159 -187 -301 -199 -313 -45 -50 -58 -52 -331 -52 l-257 0 19 32 c40 69
125 111 266 133 20 3 45 14 55 25 32 35 262 438 262 460 0 34 -17 57 -51 69
-48 17 -936 15 -969 -2 -29 -15 -199 -282 -200 -314 0 -35 11 -53 42 -69 52
-27 77 -7 159 127 l73 119 368 0 c202 0 368 -3 368 -7 -1 -5 -34 -64 -74 -132
l-73 -125 -79 -21 c-100 -27 -154 -55 -215 -112 -60 -56 -98 -133 -106 -216
-5 -57 -3 -66 20 -92 l25 -30 319 0 c308 0 320 1 376 23 33 14 74 41 98 65 23
23 126 179 229 347 132 214 196 310 216 322 53 31 153 51 235 46 97 -6 168
-39 233 -108 72 -77 100 -146 104 -255 6 -141 -37 -249 -146 -367 -86 -93
-195 -159 -317 -193 -95 -26 -320 -31 -446 -10 -111 18 -160 15 -217 -14 -85
-44 -132 -122 -132 -218 1 -91 52 -178 129 -217 97 -50 563 -114 630 -86 40
16 56 61 36 100 -18 35 -25 37 -150 45 -109 7 -307 37 -395 60 -89 23 -127 92
-84 153 28 40 58 44 167 26 78 -13 136 -15 261 -11 187 7 267 24 393 87 376
186 538 617 345 915 -75 116 -198 208 -313 234 -61 15 -203 12 -271 -4z"/>
</g>
</svg>
