<?xml version="1.0" standalone="no"?>
<!DOCTYPE svg PUBLIC "-//W3C//DTD SVG 20010904//EN"
 "http://www.w3.org/TR/2001/REC-SVG-20010904/DTD/svg10.dtd">
<svg version="1.0" xmlns="http://www.w3.org/2000/svg"
 width="512.000000pt" height="512.000000pt" viewBox="0 0 512.000000 512.000000"
 preserveAspectRatio="xMidYMid meet">

<g transform="translate(0.000000,512.000000) scale(0.100000,-0.100000)"
fill="#000" stroke="none">
<path d="M4085 5013 c-90 -12 -205 -37 -241 -52 -76 -34 -96 -132 -39 -191 17
-17 50 -34 88 -45 130 -36 271 -132 358 -243 23 -30 53 -58 66 -63 33 -12 74
8 91 44 17 36 0 71 -74 155 -70 78 -155 144 -250 193 l-74 38 38 8 c70 15 282
9 352 -10 211 -57 360 -188 470 -411 188 -380 103 -793 -249 -1216 -92 -110
-92 -119 -2 -209 77 -77 119 -154 148 -267 22 -85 24 -398 4 -544 -29 -212
-93 -466 -160 -630 l-31 -75 0 -552 c0 -365 -4 -561 -11 -580 -22 -60 -109
-122 -169 -123 -76 0 -150 46 -181 115 -17 36 -19 72 -19 378 0 212 -4 345
-10 357 -6 11 -36 32 -68 47 -111 54 -222 192 -294 365 -17 40 -37 81 -46 91
-14 16 -63 17 -757 17 -624 0 -744 -2 -761 -14 -18 -14 -19 -35 -24 -618 -6
-666 -2 -635 -70 -692 -89 -75 -228 -47 -281 57 -21 41 -22 56 -29 548 -5 360
-11 512 -19 528 -26 49 -106 47 -128 -2 -14 -30 1 -1039 16 -1085 29 -93 96
-167 191 -211 73 -34 190 -36 263 -3 70 31 140 102 173 175 l29 62 3 552 3
553 644 0 645 0 30 -66 c67 -149 197 -307 300 -366 l39 -23 3 -330 c3 -314 4
-332 25 -377 123 -265 484 -274 620 -16 l28 53 5 575 5 575 32 77 c157 379
219 979 131 1268 -26 85 -81 189 -128 243 l-37 42 76 102 c318 426 394 870
213 1257 -142 303 -359 481 -648 531 -80 14 -216 18 -289 8z"/>
<path d="M1301 4575 c-84 -19 -190 -70 -269 -130 -70 -53 -161 -163 -200 -242
-15 -29 -33 -55 -42 -58 -8 -2 -170 -40 -360 -85 -190 -44 -355 -82 -367 -85
-12 -3 -32 -15 -44 -28 -19 -20 -20 -29 -14 -95 13 -157 83 -358 166 -479 104
-152 258 -260 439 -308 39 -10 121 -19 205 -22 l140 -6 107 -121 c340 -385
567 -704 597 -836 5 -25 15 -124 21 -220 6 -96 16 -187 22 -202 21 -57 119
-51 134 8 8 33 -11 344 -27 429 -15 80 -55 166 -134 287 -121 184 -300 409
-538 676 l-118 132 -137 0 c-169 0 -250 16 -361 71 -120 59 -203 145 -271 280
l-50 101 40 29 c56 41 97 101 111 165 7 33 18 55 28 58 9 3 126 30 261 61 135
31 252 63 261 71 9 8 33 48 54 89 68 134 189 246 320 295 81 30 230 38 346 17
257 -45 379 -198 458 -577 35 -168 56 -234 106 -328 121 -231 341 -361 612
-362 81 0 95 3 117 23 36 32 39 74 6 107 -17 17 -33 20 -110 20 -176 0 -285
42 -395 154 -83 84 -135 181 -164 308 -11 45 -33 141 -50 211 -75 324 -239
515 -496 583 -86 22 -322 28 -404 9z"/>
<path d="M4435 4275 c-31 -30 -31 -44 1 -152 68 -232 29 -485 -110 -718 l-53
-90 -572 -5 c-558 -5 -573 -6 -587 -25 -22 -30 -14 -85 16 -106 23 -17 62 -18
613 -20 433 -1 591 2 601 10 28 23 114 157 159 246 89 178 123 334 114 523 -8
174 -54 328 -104 351 -36 16 -51 14 -78 -14z"/>
<path d="M1845 4070 c-12 -14 -22 -52 -31 -122 -21 -160 -65 -278 -103 -278
-39 0 -114 124 -166 275 -25 73 -35 92 -58 103 -36 17 -77 4 -97 -31 -13 -23
-12 -33 8 -104 27 -94 99 -244 142 -296 78 -93 190 -119 272 -61 81 56 139
208 154 402 7 77 6 84 -16 107 -29 31 -79 33 -105 5z"/>
<path d="M1075 4018 c-112 -88 -64 -308 67 -308 55 0 94 24 119 73 42 82 20
198 -45 238 -43 26 -106 25 -141 -3z"/>
</g>
</svg>
