<?xml version="1.0" standalone="no"?>
<!DOCTYPE svg PUBLIC "-//W3C//DTD SVG 20010904//EN"
 "http://www.w3.org/TR/2001/REC-SVG-20010904/DTD/svg10.dtd">
<svg version="1.0" xmlns="http://www.w3.org/2000/svg"
 width="512.000000pt" height="512.000000pt" viewBox="0 0 512.000000 512.000000"
 preserveAspectRatio="xMidYMid meet">

<g transform="translate(0.000000,512.000000) scale(0.100000,-0.100000)"
fill="#000" stroke="none">
<path d="M1295 5109 c-16 -7 -44 -22 -62 -35 l-31 -24 -64 30 c-133 63 -265
23 -327 -98 -19 -38 -21 -58 -21 -267 0 -212 1 -226 20 -245 22 -22 60 -26 90
-10 33 17 40 66 40 265 0 187 1 192 23 213 33 31 79 28 143 -9 l54 -30 0 -452
0 -452 -109 -52 -109 -51 -4 180 -3 180 -28 24 c-34 29 -56 30 -91 3 l-26 -20
0 -218 c0 -249 11 -221 -110 -291 -272 -157 -479 -358 -536 -522 -28 -80 -26
-232 4 -320 87 -252 363 -453 832 -605 96 -31 180 -61 187 -67 27 -24 210
-342 292 -506 133 -267 150 -331 175 -643 11 -134 17 -171 31 -187 25 -27 79
-26 106 1 21 21 22 28 15 150 -15 299 -52 456 -160 685 -86 181 -306 562 -358
620 -11 12 -47 29 -81 38 -449 122 -773 309 -869 502 -79 156 -58 301 62 436
139 156 486 375 795 503 50 21 100 49 113 62 l22 24 0 508 c0 479 1 509 18
524 28 25 43 21 128 -34 197 -129 337 -316 389 -524 26 -102 24 -280 -5 -410
-40 -179 -43 -163 42 -252 156 -164 250 -348 293 -576 8 -45 21 -88 28 -95 7
-7 80 -30 163 -52 200 -52 406 -119 599 -195 144 -56 395 -167 420 -185 6 -4
63 -35 127 -68 105 -55 120 -60 147 -51 38 13 59 59 43 95 -16 35 -79 72 -307
184 -303 148 -594 258 -924 348 l-145 39 -22 89 c-50 203 -138 372 -277 535
l-57 66 21 99 c27 124 30 332 6 440 -62 275 -233 503 -503 668 -68 41 -145 55
-199 35z"/>
<path d="M1034 3401 c-46 -28 -75 -82 -81 -151 -5 -51 -2 -67 21 -114 22 -44
35 -59 72 -76 106 -52 203 32 204 175 0 136 -117 226 -216 166z"/>
<path d="M3835 2465 c-25 -24 -31 -49 -19 -79 3 -9 45 -46 93 -83 115 -90 293
-270 364 -370 290 -407 327 -872 99 -1256 -59 -100 -207 -257 -306 -326 -142
-98 -319 -166 -490 -190 -101 -14 -1067 -15 -1118 -1 -60 17 -128 110 -128
175 0 30 24 88 47 116 57 67 66 69 481 69 359 0 373 1 392 20 33 33 26 79 -23
142 -83 107 -136 261 -137 396 0 154 76 347 179 449 68 68 161 118 239 129 70
9 96 30 96 79 0 71 -53 90 -168 60 -238 -62 -421 -278 -480 -567 -29 -142 -16
-298 38 -435 28 -71 36 -71 -101 -7 -182 84 -376 216 -522 357 -88 84 -117 94
-162 58 l-24 -19 -5 -454 c-5 -485 -5 -483 -57 -530 -28 -25 -88 -48 -125 -48
-69 1 -147 57 -173 125 -4 11 -10 107 -14 213 -6 188 -7 194 -30 213 -32 26
-73 24 -99 -4 -20 -22 -22 -33 -22 -163 0 -179 13 -292 40 -344 32 -64 96
-127 159 -157 48 -24 67 -28 141 -27 98 1 155 21 218 79 l40 36 34 -32 c18
-17 58 -43 88 -58 l55 -26 520 -3 c543 -3 642 2 790 39 186 48 342 130 526
279 l25 21 50 -25 c271 -136 602 38 654 343 35 208 -96 433 -292 502 l-38 13
0 72 c0 232 -107 537 -268 764 -124 176 -453 480 -518 480 -14 0 -36 -11 -49
-25z m925 -1511 c125 -113 128 -318 6 -439 -69 -69 -145 -99 -236 -92 -36 2
-80 11 -98 18 l-32 14 45 60 c84 112 177 324 210 478 5 27 6 27 36 12 17 -9
48 -32 69 -51z m-2230 -134 c36 -24 106 -68 155 -97 l90 -53 -155 0 c-153 -1
-183 -6 -272 -45 -17 -7 -18 5 -18 169 l0 177 68 -54 c37 -29 96 -73 132 -97z"/>
</g>
</svg>
