<?xml version="1.0" standalone="no"?>
<!DOCTYPE svg PUBLIC "-//W3C//DTD SVG 20010904//EN"
 "http://www.w3.org/TR/2001/REC-SVG-20010904/DTD/svg10.dtd">
<svg version="1.0" xmlns="http://www.w3.org/2000/svg"
 width="512.000000pt" height="512.000000pt" viewBox="0 0 512.000000 512.000000"
 preserveAspectRatio="xMidYMid meet">

<g transform="translate(0.000000,512.000000) scale(0.100000,-0.100000)"
fill="#000" stroke="none">
<path d="M1245 5105 c-110 -55 -160 -207 -171 -515 l-6 -175 -58 -100 c-130
-226 -238 -470 -275 -622 -10 -42 -23 -73 -30 -73 -7 0 -36 4 -64 10 -78 15
-121 -12 -121 -74 0 -38 40 -65 116 -79 l69 -12 6 -45 c3 -25 9 -65 13 -90 l8
-46 -53 -24 c-105 -49 -135 -105 -84 -155 32 -33 58 -31 133 9 l63 34 19 -36
c51 -98 175 -216 270 -258 22 -10 40 -24 40 -31 0 -8 -20 -85 -45 -171 -53
-185 -55 -213 -19 -241 34 -27 57 -26 88 2 21 18 38 65 90 246 48 166 62 229
56 246 -10 26 -47 55 -71 55 -34 0 -140 63 -193 115 -143 141 -200 370 -145
580 42 161 148 395 277 612 l59 100 6 189 c4 104 13 221 21 261 17 81 50 153
70 153 48 0 145 -132 246 -334 53 -107 82 -154 100 -163 19 -10 115 -12 417
-11 342 3 394 5 408 19 9 9 36 59 59 112 59 129 128 246 183 307 79 88 98 87
132 -4 27 -74 41 -184 45 -371 l3 -160 67 -110 c167 -276 276 -546 292 -726
14 -144 -50 -328 -152 -438 -55 -60 -172 -131 -216 -131 -25 0 -68 -44 -68
-69 0 -10 29 -120 64 -243 93 -320 167 -599 241 -900 148 -608 185 -890 135
-1051 -48 -155 -189 -257 -435 -316 -44 -10 -81 -18 -82 -17 -2 1 8 54 22 118
64 301 126 891 151 1429 l7 145 -28 22 c-36 28 -70 28 -99 -1 -21 -21 -24 -35
-30 -158 -19 -373 -60 -845 -97 -1104 -51 -360 -132 -655 -179 -655 -17 0 -58
99 -85 203 -62 244 -104 684 -121 1271 -7 225 -8 230 -31 254 -19 19 -31 23
-56 18 -55 -11 -67 -36 -67 -145 0 -413 57 -1111 109 -1351 11 -47 17 -87 15
-89 -7 -7 -392 -6 -399 1 -3 3 3 50 14 104 53 265 96 779 103 1257 l3 179 -28
24 c-35 30 -59 30 -94 0 l-28 -24 -7 -273 c-18 -686 -77 -1173 -165 -1372 -14
-31 -32 -57 -39 -57 -32 0 -99 199 -139 418 -60 325 -101 741 -139 1405 -4 75
-30 117 -72 117 -75 0 -83 -28 -73 -230 29 -546 82 -1041 145 -1368 14 -73 24
-135 22 -137 -9 -9 -204 50 -276 85 -179 85 -262 218 -262 416 0 153 71 529
191 1003 68 274 77 318 66 340 -26 55 -109 53 -132 -3 -23 -55 -162 -626 -205
-840 -70 -354 -83 -512 -54 -653 54 -262 248 -414 629 -494 55 -11 100 -21
101 -22 1 -1 13 -25 28 -54 89 -177 234 -191 326 -30 l29 51 255 1 255 0 15
-31 c36 -76 110 -134 171 -134 65 0 138 67 178 162 10 24 24 39 39 42 13 3 50
10 83 17 502 94 1021 402 1331 788 260 324 401 683 445 1131 13 141 7 545 -11
700 -9 73 -16 100 -33 118 -29 31 -83 27 -110 -9 -18 -25 -18 -33 -7 -130 18
-163 24 -518 11 -659 -61 -659 -381 -1172 -944 -1514 -44 -26 -81 -46 -83 -43
-2 2 3 24 11 48 9 24 21 90 27 146 11 102 11 103 47 126 56 38 172 149 234
225 62 76 74 124 40 154 -52 44 -81 31 -171 -75 -40 -47 -92 -101 -117 -121
-44 -36 -44 -36 -49 -14 -2 13 -18 100 -36 193 -39 215 -94 451 -176 770 -57
219 -198 726 -211 761 -2 7 21 26 59 46 79 42 188 143 235 220 20 32 40 58 46
58 6 0 34 -13 64 -30 76 -43 120 -37 141 21 17 45 -4 75 -82 118 l-72 40 14
89 15 89 72 12 c82 13 108 34 108 82 0 46 -33 74 -85 70 -119 -9 -108 -14
-128 64 -42 161 -155 416 -275 620 l-54 93 -6 148 c-8 253 -35 385 -95 476
-35 53 -96 88 -151 88 -114 -1 -245 -141 -370 -397 l-50 -103 -327 0 -327 0
-52 108 c-147 302 -309 442 -438 377z"/>
<path d="M1371 3934 c-114 -59 -122 -268 -12 -341 100 -67 221 24 221 166 0
134 -109 225 -209 175z"/>
<path d="M2650 3939 c-67 -27 -103 -90 -104 -179 -3 -235 268 -259 300 -27 12
85 -34 174 -103 203 -37 16 -58 17 -93 3z"/>
<path d="M3933 3756 c-103 -34 -180 -103 -225 -202 -18 -39 -22 -66 -22 -134
1 -100 18 -155 124 -405 77 -182 128 -329 156 -450 29 -121 26 -381 -4 -535
-27 -131 -79 -300 -128 -412 -42 -94 -43 -129 -8 -157 54 -43 92 -21 137 78
112 246 177 536 177 790 0 232 -39 375 -224 827 -80 195 -96 266 -72 329 18
46 79 109 122 125 41 16 86 11 140 -14 91 -42 171 -163 230 -345 15 -46 35
-92 45 -102 25 -25 74 -24 99 1 28 28 25 73 -11 177 -97 277 -245 430 -426
439 -41 2 -85 -2 -110 -10z"/>
<path d="M1950 3700 c-153 -33 -156 -187 -5 -260 l45 -22 0 -97 c0 -89 2 -99
23 -119 31 -29 72 -28 102 3 23 22 25 32 25 119 l0 94 54 30 c63 36 96 83 96
138 0 82 -54 114 -199 120 -53 2 -116 -1 -141 -6z"/>
</g>
</svg>
