<svg width="32" height="29" viewBox="0 0 32 29" fill="none" xmlns="http://www.w3.org/2000/svg">
<g clip-path="url(#clip0_18_527)">
<path d="M31.0167 18.5333C29.9222 17.55 28.2722 17.5555 27.1333 18.4667L23.7111 21.2055C23.6056 21.2889 23.4778 21.3333 23.3389 21.3333H21.0278C21.2833 20.8 21.3889 20.1833 21.2944 19.5389C21.0722 17.9889 19.65 16.8889 18.0833 16.8889H10.0722C8.91667 16.8889 7.79444 17.2611 6.87222 17.9555L4.73889 19.5555H0.444444C0.2 19.5555 0 19.7555 0 20V20.8889C0 21.1333 0.2 21.3333 0.444444 21.3333H5.33333L7.93889 19.3778C8.55556 18.9166 9.30556 18.6667 10.0722 18.6667H18.2222C18.9611 18.6667 19.5556 19.2611 19.5556 20C19.5556 20.7389 18.9611 21.3333 18.2222 21.3333H13.3333C12.8444 21.3333 12.4444 21.7333 12.4444 22.2222C12.4444 22.7111 12.8444 23.1111 13.3333 23.1111H23.3444C23.8833 23.1111 24.4056 22.9278 24.8278 22.5944L28.25 19.8611C28.6778 19.5222 29.3611 19.4389 29.8278 19.8611C30.3889 20.3666 30.3444 21.2222 29.7778 21.6722L24.1778 26.1555C23.7556 26.4944 23.2333 26.6722 22.6944 26.6722H0.444444C0.2 26.6722 0 26.8722 0 27.1166V28.0055C0 28.25 0.2 28.45 0.444444 28.45H22.6944C23.6389 28.45 24.55 28.1278 25.2833 27.5389L30.8889 23.0555C31.5667 22.5111 31.9722 21.7 32 20.8333C32.0278 19.9667 31.6667 19.1222 31.0167 18.5333ZM15.2944 13.9166C15.6833 14.3278 16.3167 14.3278 16.7111 13.9166L22.7611 7.57776C24.5167 5.73332 24.4167 2.68332 22.45 0.983316C20.4889 -0.716684 17.9278 0.0388718 16.6222 1.41109L16 2.05554L15.3833 1.41109C14.1056 0.0722051 11.5333 -0.73335 9.55556 0.983316C7.59444 2.68332 7.48889 5.73887 9.24444 7.57776L15.2944 13.9166ZM10.6889 2.32776C11.8444 1.32776 13.3667 1.84443 14.1278 2.64443L16 4.60554L17.8722 2.64443C18.6222 1.86109 20.15 1.32776 21.3111 2.32776C22.6333 3.47221 22.4333 5.35554 21.5 6.33332L16 12.1L10.5 6.33332C9.57222 5.36665 9.37222 3.47221 10.6889 2.32776Z" fill="#15106A"/>
</g>
<defs>
<clipPath id="clip0_18_527">
<rect width="32" height="28.4444" fill="white"/>
</clipPath>
</defs>
</svg>
