<svg width="32" height="29" viewBox="0 0 32 29" fill="none" xmlns="http://www.w3.org/2000/svg">
<path d="M30.0555 12.7311L26.6667 9.96274V5.66274C26.6667 5.57434 26.6315 5.48955 26.569 5.42704C26.5065 5.36453 26.4217 5.32941 26.3333 5.32941H25.2222C25.1338 5.32941 25.049 5.36453 24.9865 5.42704C24.924 5.48955 24.8889 5.57434 24.8889 5.66274V8.51441L17.1217 2.17441C16.804 1.91818 16.4081 1.77844 16 1.77844C15.5919 1.77844 15.196 1.91818 14.8783 2.17441L1.94443 12.7311C1.85321 12.8054 1.79519 12.9129 1.78311 13.03C1.77103 13.147 1.80587 13.2641 1.87999 13.3555L2.4411 14.045C2.51515 14.1358 2.62208 14.1937 2.73861 14.2061C2.85514 14.2185 2.97184 14.1843 3.06332 14.1111L5.33332 12.2566V25.7566C5.33332 25.9924 5.42697 26.2185 5.59367 26.3852C5.76037 26.5519 5.98646 26.6455 6.22221 26.6455H13.3333C13.5691 26.6455 13.7952 26.5519 13.9619 26.3852C14.1286 26.2185 14.2222 25.9924 14.2222 25.7566V18.6455L17.7778 18.6622V25.7777C17.7778 26.0135 17.8714 26.2396 18.0381 26.4063C18.2048 26.573 18.4309 26.6666 18.6667 26.6666L25.7778 26.6483C26.0135 26.6483 26.2396 26.5546 26.4063 26.3879C26.573 26.2212 26.6667 25.9952 26.6667 25.7594V12.2566L28.9367 14.1111C29.0281 14.1854 29.1453 14.2203 29.2625 14.2082C29.3797 14.1961 29.4873 14.138 29.5617 14.0466L30.1228 13.3572C30.1596 13.3117 30.187 13.2594 30.2036 13.2033C30.2201 13.1472 30.2254 13.0883 30.2192 13.0302C30.2129 12.972 30.1953 12.9156 30.1672 12.8643C30.1391 12.813 30.1012 12.7677 30.0555 12.7311ZM24.8828 24.875H24.8883L19.555 24.8916V17.7711C19.5543 17.536 19.4608 17.3108 19.2948 17.1443C19.1289 16.9779 18.9039 16.8837 18.6689 16.8822L13.3355 16.8672C13.2186 16.8668 13.1027 16.8895 12.9945 16.9341C12.8864 16.9786 12.788 17.044 12.7052 17.1266C12.6224 17.2091 12.5567 17.3072 12.5118 17.4153C12.467 17.5233 12.4439 17.6391 12.4439 17.7561V24.875H7.1111V10.8061L16 3.55219L24.8889 10.8061L24.8828 24.875Z" fill="#000"/>
</svg>
