<svg width="18" height="24" viewBox="0 0 18 24" fill="none" xmlns="http://www.w3.org/2000/svg">
<path d="M9 0C4.05 0 0 4.05 0 9C0 12.6 1.2 13.65 8.1 23.55C8.55 24.15 9.45 24.15 9.9 23.55C16.8 13.65 18 12.6 18 9C18 4.05 13.95 0 9 0ZM9 16.5C8.17172 16.5 7.5 15.8283 7.5 15C7.5 14.1717 8.17172 13.5 9 13.5C9.82828 13.5 10.5 14.1717 10.5 15C10.5 15.8283 9.82828 16.5 9 16.5ZM10.2502 11.1905V11.2575C10.2502 11.6677 9.91781 12 9.50766 12H8.74266C8.3325 12 8.00016 11.6677 8.00016 11.2575V10.5C8.00016 10.0734 8.24344 9.68297 8.625 9.49219C10.0598 8.77453 11.0002 8.24813 11.0002 7.5C11.0002 6.59109 10.343 5.625 9.12516 5.625C8.28469 5.625 7.57219 6.18 7.33453 6.94312C7.23375 7.26656 6.95437 7.5 6.61594 7.5H5.82656C5.34656 7.5 4.99594 7.05187 5.10281 6.58359C5.52047 4.74844 7.16531 3.375 9.12516 3.375C11.707 3.375 13.2502 5.47266 13.2502 7.5C13.2502 9.41953 11.715 10.4283 10.2502 11.1905Z" fill="#000"/>
</svg>
