<svg width="40" height="40" viewBox="0 0 40 40" fill="none" xmlns="http://www.w3.org/2000/svg">
<path d="M19.9999 17.5001C13.796 17.5001 4.99994 27.0907 4.99994 33.1446C4.99994 35.8712 7.09447 37.5001 10.6046 37.5001C14.4203 37.5001 16.9398 35.5407 19.9999 35.5407C23.0867 35.5407 25.6132 37.5001 29.3953 37.5001C32.9054 37.5001 34.9999 35.8712 34.9999 33.1446C34.9999 27.0907 26.2039 17.5001 19.9999 17.5001ZM29.3953 35.0001C27.8093 35.0001 26.4414 34.5493 24.9929 34.0719C23.4554 33.5649 21.8664 33.0415 19.9999 33.0415C18.1523 33.0415 16.5742 33.5626 15.0476 34.0665C13.5913 34.5469 12.2156 35.0008 10.6046 35.0008C7.49994 35.0001 7.49994 33.6032 7.49994 33.1446C7.49994 28.2305 15.3273 20.0001 19.9999 20.0001C24.6726 20.0001 32.4999 28.2305 32.4999 33.1446C32.4999 33.6032 32.4999 35.0001 29.3953 35.0001ZM37.096 12.5993C36.8171 12.5321 36.5335 12.5001 36.2515 12.5001C34.232 12.5001 32.2187 14.1407 31.5062 16.5149C30.6937 19.2219 31.8789 21.8571 34.1539 22.4008C34.4335 22.468 34.7164 22.5001 34.9984 22.5001C37.0179 22.5001 39.0312 20.8594 39.7437 18.4852C40.5562 15.7782 39.371 13.143 37.096 12.5993ZM37.3492 17.7665C36.9296 19.1641 35.8242 20.0001 34.9984 20.0001C34.9078 20.0001 34.8195 19.9899 34.7351 19.9696C34.446 19.9008 34.2101 19.7102 34.0335 19.4032C33.7109 18.8422 33.6617 18.0321 33.9007 17.2344C34.3203 15.836 35.4257 15.0001 36.2523 15.0001C36.3429 15.0001 36.4312 15.0102 36.5156 15.0305C36.8046 15.0993 37.0406 15.2907 37.2171 15.5969C37.539 16.1579 37.589 16.968 37.3492 17.7665ZM24.8874 14.8915C25.1648 14.9641 25.446 14.9993 25.7281 14.9993C27.9031 14.9993 30.1203 12.904 30.939 9.90162C31.864 6.50943 30.6546 3.24458 28.2374 2.60786C27.9631 2.53541 27.6805 2.4989 27.3968 2.49927C25.2218 2.49927 23.0046 4.59458 22.1859 7.59771C21.2609 10.9899 22.4703 14.2555 24.8874 14.8915ZM24.5976 8.2563C25.1773 6.1313 26.596 5.00005 27.3968 5.00005C27.4679 5.00005 27.5351 5.00865 27.6007 5.02583C27.9234 5.11099 28.157 5.41646 28.296 5.65787C28.6929 6.34537 28.9617 7.64849 28.5265 9.24458C27.9468 11.3688 26.5289 12.5001 25.7273 12.5001C25.6562 12.5001 25.589 12.4915 25.5226 12.4743C25.2007 12.3899 24.9664 12.0844 24.8273 11.843C24.4312 11.1547 24.1624 9.8524 24.5976 8.2563ZM14.2718 15.0001C14.5538 15.0001 14.8351 14.9649 15.1124 14.8922C17.5296 14.2563 18.739 10.9907 17.814 7.59849C16.9953 4.59536 14.7781 2.50005 12.6031 2.50005C12.321 2.50005 12.0398 2.53521 11.7624 2.60865C9.34525 3.24458 8.13588 6.51021 9.06088 9.9024C9.87963 12.9047 12.0976 15.0001 14.2718 15.0001ZM11.7031 5.65787C11.8421 5.41646 12.0765 5.11099 12.3984 5.02583C12.4648 5.00865 12.5312 5.00005 12.6023 5.00005C13.4038 5.00005 14.8218 6.1313 15.4015 8.2563C15.8367 9.8524 15.5679 11.1555 15.171 11.843C15.032 12.0844 14.7984 12.3899 14.4757 12.4743C14.4093 12.4915 14.3429 12.5001 14.2718 12.5001C13.4703 12.5001 12.0523 11.3688 11.4726 9.2438C11.0374 7.64849 11.3062 6.34537 11.7031 5.65787ZM5.84682 22.4008C8.12182 21.8571 9.30697 19.2219 8.49369 16.5149C7.78119 14.1407 5.76791 12.5001 3.74838 12.5001C3.46557 12.5001 3.18275 12.5321 2.90385 12.5993C0.628846 13.143 -0.55631 15.7782 0.25619 18.4852C0.968691 20.8594 2.98275 22.5001 5.0015 22.5001C5.28432 22.5001 5.56713 22.468 5.84682 22.4008ZM2.65072 17.7657C2.41166 16.968 2.46088 16.1571 2.78353 15.5969C2.9601 15.2899 3.19603 15.0993 3.4851 15.0305C3.56947 15.0102 3.65775 15.0001 3.74838 15.0001C4.57416 15.0001 5.67963 15.836 6.09916 17.2336C6.33822 18.0313 6.289 18.8422 5.96635 19.4032C5.78979 19.7102 5.55385 19.9008 5.26478 19.9696C5.17885 19.9899 5.09291 20.0001 5.0015 20.0001C4.17572 20.0001 3.07025 19.1641 2.65072 17.7657Z" fill="#000000"/>
</svg>
