<svg width="22" height="29" viewBox="0 0 22 29" fill="none" xmlns="http://www.w3.org/2000/svg">
<g clip-path="url(#clip0_18_531)">
<path d="M11.1284 0C6.88954 0 3.87496 1.75523 1.5661 5.18263C0.776609 6.35462 1.04073 7.94187 2.16739 8.79618L4.50225 10.5666C5.65257 11.4388 7.29881 11.2423 8.20606 10.0939C9.39881 8.58405 9.78197 8.31859 10.7685 8.31859C11.3361 8.31859 12.1733 8.70736 12.1733 9.33187C12.1733 10.7612 6.102 10.4841 6.102 16.1225V16.8862C6.102 17.7754 6.53987 18.5637 7.21088 19.0484C6.06228 20.0273 5.33245 21.4836 5.33245 23.1075C5.33245 26.0479 7.72458 28.44 10.6649 28.44C13.6053 28.44 15.9974 26.0479 15.9974 23.1075C15.9974 21.4836 15.2676 20.0273 14.119 19.0484C14.79 18.5637 15.2279 17.7754 15.2279 16.8862V16.6249C16.638 15.5701 21.0207 14.1528 21.0207 8.88039C21.0207 3.82124 16.0169 0 11.1284 0ZM10.6649 26.6625C8.7047 26.6625 7.10995 25.0677 7.10995 23.1075C7.10995 21.1473 8.7047 19.5525 10.6649 19.5525C12.6252 19.5525 14.2199 21.1473 14.2199 23.1075C14.2199 25.0677 12.6252 26.6625 10.6649 26.6625ZM13.4504 16.3082V16.8862C13.4504 17.3771 13.0525 17.775 12.5617 17.775H8.76825C8.27743 17.775 7.8795 17.3771 7.8795 16.8862V16.1225C7.8795 11.3021 13.9508 12.9383 13.9508 9.33187C13.9508 7.55438 12.1911 6.54109 10.7685 6.54109C8.892 6.54109 8.03747 7.43984 6.81127 8.99198C6.51115 9.37192 5.9623 9.44297 5.57619 9.15018L3.24133 7.37979C2.866 7.09517 2.77713 6.56636 3.04025 6.1757C4.93673 3.36053 7.35202 1.7775 11.1284 1.7775C15.0535 1.7775 19.2432 4.84135 19.2432 8.88039C19.2432 14.2437 13.4504 14.3263 13.4504 16.3082Z" fill="#15106A"/>
</g>
<defs>
<clipPath id="clip0_18_531">
<rect width="21.33" height="28.44" fill="white"/>
</clipPath>
</defs>
</svg>
