<svg width="25" height="29" viewBox="0 0 25 29" fill="none" xmlns="http://www.w3.org/2000/svg">
<g clip-path="url(#clip0_18_529)">
<path d="M17.4195 15.9975C15.8253 15.9975 15.0588 16.8862 12.4425 16.8862C9.82624 16.8862 9.06525 15.9975 7.4655 15.9975C3.34392 15.9975 0 19.3414 0 23.463V25.7738C0 27.2457 1.19426 28.44 2.66625 28.44H22.2187C23.6907 28.44 24.885 27.2457 24.885 25.7738V23.463C24.885 19.3414 21.5411 15.9975 17.4195 15.9975ZM23.1075 25.7738C23.1075 26.2626 22.7076 26.6625 22.2187 26.6625H2.66625C2.17744 26.6625 1.7775 26.2626 1.7775 25.7738V23.463C1.7775 20.3246 4.3271 17.775 7.4655 17.775C8.55422 17.775 9.63738 18.6637 12.4425 18.6637C15.2421 18.6637 16.3308 17.775 17.4195 17.775C20.5579 17.775 23.1075 20.3246 23.1075 23.463V25.7738ZM12.4425 14.22C16.3697 14.22 19.5525 11.0372 19.5525 7.11C19.5525 3.18284 16.3697 0 12.4425 0C8.51534 0 5.3325 3.18284 5.3325 7.11C5.3325 11.0372 8.51534 14.22 12.4425 14.22ZM12.4425 1.7775C15.3809 1.7775 17.775 4.17157 17.775 7.11C17.775 10.0484 15.3809 12.4425 12.4425 12.4425C9.50407 12.4425 7.11 10.0484 7.11 7.11C7.11 4.17157 9.50407 1.7775 12.4425 1.7775Z" fill="#15106A"/>
</g>
<defs>
<clipPath id="clip0_18_529">
<rect width="24.885" height="28.44" fill="white"/>
</clipPath>
</defs>
</svg>
